<svg width="12" height="13" viewBox="0 0 12 13" fill="none" xmlns="http://www.w3.org/2000/svg">
<path d="M10.8 1.18182H10.2V0.590909C10.2 0.265908 9.93 0 9.59997 0C9.27003 0 9.00003 0.265908 9.00003 0.590909V1.18182H3V0.590909C3 0.265908 2.73 0 2.4 0C2.07 0 1.8 0.265908 1.8 0.590909V1.18182H1.20001C0.54 1.18182 0 1.71364 0 2.36363V11.8181C0 12.4682 0.54 13 1.20001 13H10.8C11.46 13 12 12.4682 12 11.8181V2.36363C12 1.71364 11.46 1.18182 10.8 1.18182ZM10.2 11.8181H1.8C1.47001 11.8181 1.20001 11.5522 1.20001 11.2273V4.13635H10.8V11.2273C10.8 11.5522 10.53 11.8181 10.2 11.8181Z" fill="#757575"/>
</svg>
